<!DOCTYPE svg PUBLIC "-//W3C//DTD SVG 1.1//EN" "http://www.w3.org/Graphics/SVG/1.1/DTD/svg11.dtd">
<!-- Uploaded to: SVG Repo, www.svgrepo.com, Transformed by: SVG Repo Mixer Tools -->
<svg fill="#14919B" width="800px" height="800px" viewBox="0 0 24 24" xmlns="http://www.w3.org/2000/svg">
<g id="SVGRepo_bgCarrier" stroke-width="0"/>
<g id="SVGRepo_tracerCarrier" stroke-linecap="round" stroke-linejoin="round"/>
<g id="SVGRepo_iconCarrier">
<path d="M10,7H3A1,1,0,0,0,2,8V22h9V8A1,1,0,0,0,10,7ZM6,20H4V18H6Zm0-3H4V15H6Zm0-3H4V12H6Zm0-3H4V9H6Zm3,9H7V18H9Zm0-3H7V15H9Zm0-3H7V12H9Zm0-3H7V9H9ZM21.406,5.736,13,2V22h9V6.65A1,1,0,0,0,21.406,5.736ZM20,18H15V16h5Zm0-4H15V12h5Zm0-4H15V8h5Z"/>
</g>
</svg>