<svg xmlns="http://www.w3.org/2000/svg" version="1.1" xmlns:xlink="http://www.w3.org/1999/xlink" xmlns:svgjs="http://svgjs.com/svgjs" width="1920" height="1080" preserveAspectRatio="none" viewBox="0 0 1920 1080"><g mask="url(&quot;#SvgjsMask1046&quot;)" fill="none"><path d="M101.29 261.97L154.98 292.97L154.98 354.97L101.29 385.97L47.59 354.97L47.59 292.97zM101.29 447.97L154.98 478.97L154.98 540.97L101.29 571.97L47.59 540.97L47.59 478.97zM47.59 912.97L101.29 943.97L101.29 1005.97L47.59 1036.97L-6.11 1005.97L-6.11 943.97zM208.68 261.97L262.37 292.97L262.37 354.97L208.68 385.97L154.98 354.97L154.98 292.97zM154.98 540.97L208.68 571.97L208.68 633.97L154.98 664.97L101.29 633.97L101.29 571.97zM154.98 1098.97L208.68 1129.97L208.68 1191.97L154.98 1222.97L101.29 1191.97L101.29 1129.97zM316.07 75.97L369.76 106.97L369.76 168.97L316.07 199.97L262.37 168.97L262.37 106.97zM262.37 1098.97L316.07 1129.97L316.07 1191.97L262.37 1222.97L208.68 1191.97L208.68 1129.97zM369.76 -17.03L423.46 13.97L423.46 75.97L369.76 106.97L316.07 75.97L316.07 13.97zM369.76 168.97L423.46 199.97L423.46 261.97L369.76 292.97L316.07 261.97L316.07 199.97zM369.76 540.97L423.46 571.97L423.46 633.97L369.76 664.97L316.07 633.97L316.07 571.97zM477.15 168.97L530.85 199.97L530.85 261.97L477.15 292.97L423.46 261.97L423.46 199.97zM530.85 447.97L584.54 478.97L584.54 540.97L530.85 571.97L477.15 540.97L477.15 478.97zM584.54 726.97L638.24 757.97L638.24 819.97L584.54 850.97L530.85 819.97L530.85 757.97zM745.63 261.97L799.32 292.97L799.32 354.97L745.63 385.97L691.93 354.97L691.93 292.97zM691.93 1098.97L745.63 1129.97L745.63 1191.97L691.93 1222.97L638.24 1191.97L638.24 1129.97zM853.02 633.97L906.71 664.97L906.71 726.97L853.02 757.97L799.32 726.97L799.32 664.97zM799.32 912.97L853.02 943.97L853.02 1005.97L799.32 1036.97L745.63 1005.97L745.63 943.97zM960.41 75.97L1014.1 106.97L1014.1 168.97L960.41 199.97L906.71 168.97L906.71 106.97zM1014.1 -17.03L1067.8 13.97L1067.8 75.97L1014.1 106.97L960.41 75.97L960.41 13.97zM1014.1 912.97L1067.8 943.97L1067.8 1005.97L1014.1 1036.97L960.41 1005.97L960.41 943.97zM1067.8 1005.97L1121.49 1036.97L1121.49 1098.97L1067.8 1129.97L1014.1 1098.97L1014.1 1036.97zM1014.1 1098.97L1067.8 1129.97L1067.8 1191.97L1014.1 1222.97L960.41 1191.97L960.41 1129.97zM1121.49 354.97L1175.19 385.97L1175.19 447.97L1121.49 478.97L1067.8 447.97L1067.8 385.97zM1175.19 1005.97L1228.88 1036.97L1228.88 1098.97L1175.19 1129.97L1121.49 1098.97L1121.49 1036.97zM1389.97 447.97L1443.66 478.97L1443.66 540.97L1389.97 571.97L1336.27 540.97L1336.27 478.97zM1497.36 261.97L1551.05 292.97L1551.05 354.97L1497.36 385.97L1443.66 354.97L1443.66 292.97zM1443.66 540.97L1497.36 571.97L1497.36 633.97L1443.66 664.97L1389.97 633.97L1389.97 571.97zM1443.66 912.97L1497.36 943.97L1497.36 1005.97L1443.66 1036.97L1389.97 1005.97L1389.97 943.97zM1604.75 75.97L1658.44 106.97L1658.44 168.97L1604.75 199.97L1551.05 168.97L1551.05 106.97zM1551.05 354.97L1604.75 385.97L1604.75 447.97L1551.05 478.97L1497.36 447.97L1497.36 385.97zM1551.05 540.97L1604.75 571.97L1604.75 633.97L1551.05 664.97L1497.36 633.97L1497.36 571.97zM1658.44 168.97L1712.14 199.97L1712.14 261.97L1658.44 292.97L1604.75 261.97L1604.75 199.97zM1712.14 261.97L1765.83 292.97L1765.83 354.97L1712.14 385.97L1658.44 354.97L1658.44 292.97zM1819.53 75.97L1873.22 106.97L1873.22 168.97L1819.53 199.97L1765.83 168.97L1765.83 106.97zM1765.83 168.97L1819.53 199.97L1819.53 261.97L1765.83 292.97L1712.14 261.97L1712.14 199.97zM1819.53 819.97L1873.22 850.97L1873.22 912.97L1819.53 943.97L1765.83 912.97L1765.83 850.97zM1819.53 1005.97L1873.22 1036.97L1873.22 1098.97L1819.53 1129.97L1765.83 1098.97L1765.83 1036.97zM1765.83 1098.97L1819.53 1129.97L1819.53 1191.97L1765.83 1222.97L1712.14 1191.97L1712.14 1129.97zM1873.22 -17.03L1926.92 13.97L1926.92 75.97L1873.22 106.97L1819.53 75.97L1819.53 13.97zM1926.92 633.97L1980.61 664.97L1980.61 726.97L1926.92 757.97L1873.22 726.97L1873.22 664.97zM1926.92 1005.97L1980.61 1036.97L1980.61 1098.97L1926.92 1129.97L1873.22 1098.97L1873.22 1036.97z" stroke="rgba(57, 121, 107, 1)" stroke-width="2"></path><path d="M95.09 261.97 a6.2 6.2 0 1 0 12.4 0 a6.2 6.2 0 1 0 -12.4 0zM148.78 292.97 a6.2 6.2 0 1 0 12.4 0 a6.2 6.2 0 1 0 -12.4 0zM148.78 354.97 a6.2 6.2 0 1 0 12.4 0 a6.2 6.2 0 1 0 -12.4 0zM95.09 385.97 a6.2 6.2 0 1 0 12.4 0 a6.2 6.2 0 1 0 -12.4 0zM41.39 354.97 a6.2 6.2 0 1 0 12.4 0 a6.2 6.2 0 1 0 -12.4 0zM41.39 292.97 a6.2 6.2 0 1 0 12.4 0 a6.2 6.2 0 1 0 -12.4 0zM95.09 447.97 a6.2 6.2 0 1 0 12.4 0 a6.2 6.2 0 1 0 -12.4 0zM148.78 478.97 a6.2 6.2 0 1 0 12.4 0 a6.2 6.2 0 1 0 -12.4 0zM148.78 540.97 a6.2 6.2 0 1 0 12.4 0 a6.2 6.2 0 1 0 -12.4 0zM95.09 571.97 a6.2 6.2 0 1 0 12.4 0 a6.2 6.2 0 1 0 -12.4 0zM41.39 540.97 a6.2 6.2 0 1 0 12.4 0 a6.2 6.2 0 1 0 -12.4 0zM41.39 478.97 a6.2 6.2 0 1 0 12.4 0 a6.2 6.2 0 1 0 -12.4 0zM41.39 912.97 a6.2 6.2 0 1 0 12.4 0 a6.2 6.2 0 1 0 -12.4 0zM95.09 943.97 a6.2 6.2 0 1 0 12.4 0 a6.2 6.2 0 1 0 -12.4 0zM95.09 1005.97 a6.2 6.2 0 1 0 12.4 0 a6.2 6.2 0 1 0 -12.4 0zM41.39 1036.97 a6.2 6.2 0 1 0 12.4 0 a6.2 6.2 0 1 0 -12.4 0zM-12.31 1005.97 a6.2 6.2 0 1 0 12.4 0 a6.2 6.2 0 1 0 -12.4 0zM-12.31 943.97 a6.2 6.2 0 1 0 12.4 0 a6.2 6.2 0 1 0 -12.4 0zM202.48 261.97 a6.2 6.2 0 1 0 12.4 0 a6.2 6.2 0 1 0 -12.4 0zM256.17 292.97 a6.2 6.2 0 1 0 12.4 0 a6.2 6.2 0 1 0 -12.4 0zM256.17 354.97 a6.2 6.2 0 1 0 12.4 0 a6.2 6.2 0 1 0 -12.4 0zM202.48 385.97 a6.2 6.2 0 1 0 12.4 0 a6.2 6.2 0 1 0 -12.4 0zM202.48 571.97 a6.2 6.2 0 1 0 12.4 0 a6.2 6.2 0 1 0 -12.4 0zM202.48 633.97 a6.2 6.2 0 1 0 12.4 0 a6.2 6.2 0 1 0 -12.4 0zM148.78 664.97 a6.2 6.2 0 1 0 12.4 0 a6.2 6.2 0 1 0 -12.4 0zM95.09 633.97 a6.2 6.2 0 1 0 12.4 0 a6.2 6.2 0 1 0 -12.4 0zM148.78 1098.97 a6.2 6.2 0 1 0 12.4 0 a6.2 6.2 0 1 0 -12.4 0zM202.48 1129.97 a6.2 6.2 0 1 0 12.4 0 a6.2 6.2 0 1 0 -12.4 0zM202.48 1191.97 a6.2 6.2 0 1 0 12.4 0 a6.2 6.2 0 1 0 -12.4 0zM148.78 1222.97 a6.2 6.2 0 1 0 12.4 0 a6.2 6.2 0 1 0 -12.4 0zM95.09 1191.97 a6.2 6.2 0 1 0 12.4 0 a6.2 6.2 0 1 0 -12.4 0zM95.09 1129.97 a6.2 6.2 0 1 0 12.4 0 a6.2 6.2 0 1 0 -12.4 0zM309.87 75.97 a6.2 6.2 0 1 0 12.4 0 a6.2 6.2 0 1 0 -12.4 0zM363.56 106.97 a6.2 6.2 0 1 0 12.4 0 a6.2 6.2 0 1 0 -12.4 0zM363.56 168.97 a6.2 6.2 0 1 0 12.4 0 a6.2 6.2 0 1 0 -12.4 0zM309.87 199.97 a6.2 6.2 0 1 0 12.4 0 a6.2 6.2 0 1 0 -12.4 0zM256.17 168.97 a6.2 6.2 0 1 0 12.4 0 a6.2 6.2 0 1 0 -12.4 0zM256.17 106.97 a6.2 6.2 0 1 0 12.4 0 a6.2 6.2 0 1 0 -12.4 0zM256.17 1098.97 a6.2 6.2 0 1 0 12.4 0 a6.2 6.2 0 1 0 -12.4 0zM309.87 1129.97 a6.2 6.2 0 1 0 12.4 0 a6.2 6.2 0 1 0 -12.4 0zM309.87 1191.97 a6.2 6.2 0 1 0 12.4 0 a6.2 6.2 0 1 0 -12.4 0zM256.17 1222.97 a6.2 6.2 0 1 0 12.4 0 a6.2 6.2 0 1 0 -12.4 0zM363.56 -17.03 a6.2 6.2 0 1 0 12.4 0 a6.2 6.2 0 1 0 -12.4 0zM417.26 13.97 a6.2 6.2 0 1 0 12.4 0 a6.2 6.2 0 1 0 -12.4 0zM417.26 75.97 a6.2 6.2 0 1 0 12.4 0 a6.2 6.2 0 1 0 -12.4 0zM309.87 13.97 a6.2 6.2 0 1 0 12.4 0 a6.2 6.2 0 1 0 -12.4 0zM417.26 199.97 a6.2 6.2 0 1 0 12.4 0 a6.2 6.2 0 1 0 -12.4 0zM417.26 261.97 a6.2 6.2 0 1 0 12.4 0 a6.2 6.2 0 1 0 -12.4 0zM363.56 292.97 a6.2 6.2 0 1 0 12.4 0 a6.2 6.2 0 1 0 -12.4 0zM309.87 261.97 a6.2 6.2 0 1 0 12.4 0 a6.2 6.2 0 1 0 -12.4 0zM363.56 540.97 a6.2 6.2 0 1 0 12.4 0 a6.2 6.2 0 1 0 -12.4 0zM417.26 571.97 a6.2 6.2 0 1 0 12.4 0 a6.2 6.2 0 1 0 -12.4 0zM417.26 633.97 a6.2 6.2 0 1 0 12.4 0 a6.2 6.2 0 1 0 -12.4 0zM363.56 664.97 a6.2 6.2 0 1 0 12.4 0 a6.2 6.2 0 1 0 -12.4 0zM309.87 633.97 a6.2 6.2 0 1 0 12.4 0 a6.2 6.2 0 1 0 -12.4 0zM309.87 571.97 a6.2 6.2 0 1 0 12.4 0 a6.2 6.2 0 1 0 -12.4 0zM470.95 168.97 a6.2 6.2 0 1 0 12.4 0 a6.2 6.2 0 1 0 -12.4 0zM524.65 199.97 a6.2 6.2 0 1 0 12.4 0 a6.2 6.2 0 1 0 -12.4 0zM524.65 261.97 a6.2 6.2 0 1 0 12.4 0 a6.2 6.2 0 1 0 -12.4 0zM470.95 292.97 a6.2 6.2 0 1 0 12.4 0 a6.2 6.2 0 1 0 -12.4 0zM524.65 447.97 a6.2 6.2 0 1 0 12.4 0 a6.2 6.2 0 1 0 -12.4 0zM578.34 478.97 a6.2 6.2 0 1 0 12.4 0 a6.2 6.2 0 1 0 -12.4 0zM578.34 540.97 a6.2 6.2 0 1 0 12.4 0 a6.2 6.2 0 1 0 -12.4 0zM524.65 571.97 a6.2 6.2 0 1 0 12.4 0 a6.2 6.2 0 1 0 -12.4 0zM470.95 540.97 a6.2 6.2 0 1 0 12.4 0 a6.2 6.2 0 1 0 -12.4 0zM470.95 478.97 a6.2 6.2 0 1 0 12.4 0 a6.2 6.2 0 1 0 -12.4 0zM578.34 726.97 a6.2 6.2 0 1 0 12.4 0 a6.2 6.2 0 1 0 -12.4 0zM632.04 757.97 a6.2 6.2 0 1 0 12.4 0 a6.2 6.2 0 1 0 -12.4 0zM632.04 819.97 a6.2 6.2 0 1 0 12.4 0 a6.2 6.2 0 1 0 -12.4 0zM578.34 850.97 a6.2 6.2 0 1 0 12.4 0 a6.2 6.2 0 1 0 -12.4 0zM524.65 819.97 a6.2 6.2 0 1 0 12.4 0 a6.2 6.2 0 1 0 -12.4 0zM524.65 757.97 a6.2 6.2 0 1 0 12.4 0 a6.2 6.2 0 1 0 -12.4 0zM739.43 261.97 a6.2 6.2 0 1 0 12.4 0 a6.2 6.2 0 1 0 -12.4 0zM793.12 292.97 a6.2 6.2 0 1 0 12.4 0 a6.2 6.2 0 1 0 -12.4 0zM793.12 354.97 a6.2 6.2 0 1 0 12.4 0 a6.2 6.2 0 1 0 -12.4 0zM739.43 385.97 a6.2 6.2 0 1 0 12.4 0 a6.2 6.2 0 1 0 -12.4 0zM685.73 354.97 a6.2 6.2 0 1 0 12.4 0 a6.2 6.2 0 1 0 -12.4 0zM685.73 292.97 a6.2 6.2 0 1 0 12.4 0 a6.2 6.2 0 1 0 -12.4 0zM685.73 1098.97 a6.2 6.2 0 1 0 12.4 0 a6.2 6.2 0 1 0 -12.4 0zM739.43 1129.97 a6.2 6.2 0 1 0 12.4 0 a6.2 6.2 0 1 0 -12.4 0zM739.43 1191.97 a6.2 6.2 0 1 0 12.4 0 a6.2 6.2 0 1 0 -12.4 0zM685.73 1222.97 a6.2 6.2 0 1 0 12.4 0 a6.2 6.2 0 1 0 -12.4 0zM632.04 1191.97 a6.2 6.2 0 1 0 12.4 0 a6.2 6.2 0 1 0 -12.4 0zM632.04 1129.97 a6.2 6.2 0 1 0 12.4 0 a6.2 6.2 0 1 0 -12.4 0zM846.82 633.97 a6.2 6.2 0 1 0 12.4 0 a6.2 6.2 0 1 0 -12.4 0zM900.51 664.97 a6.2 6.2 0 1 0 12.4 0 a6.2 6.2 0 1 0 -12.4 0zM900.51 726.97 a6.2 6.2 0 1 0 12.4 0 a6.2 6.2 0 1 0 -12.4 0zM846.82 757.97 a6.2 6.2 0 1 0 12.4 0 a6.2 6.2 0 1 0 -12.4 0zM793.12 726.97 a6.2 6.2 0 1 0 12.4 0 a6.2 6.2 0 1 0 -12.4 0zM793.12 664.97 a6.2 6.2 0 1 0 12.4 0 a6.2 6.2 0 1 0 -12.4 0zM793.12 912.97 a6.2 6.2 0 1 0 12.4 0 a6.2 6.2 0 1 0 -12.4 0zM846.82 943.97 a6.2 6.2 0 1 0 12.4 0 a6.2 6.2 0 1 0 -12.4 0zM846.82 1005.97 a6.2 6.2 0 1 0 12.4 0 a6.2 6.2 0 1 0 -12.4 0zM793.12 1036.97 a6.2 6.2 0 1 0 12.4 0 a6.2 6.2 0 1 0 -12.4 0zM739.43 1005.97 a6.2 6.2 0 1 0 12.4 0 a6.2 6.2 0 1 0 -12.4 0zM739.43 943.97 a6.2 6.2 0 1 0 12.4 0 a6.2 6.2 0 1 0 -12.4 0zM954.21 75.97 a6.2 6.2 0 1 0 12.4 0 a6.2 6.2 0 1 0 -12.4 0zM1007.9 106.97 a6.2 6.2 0 1 0 12.4 0 a6.2 6.2 0 1 0 -12.4 0zM1007.9 168.97 a6.2 6.2 0 1 0 12.4 0 a6.2 6.2 0 1 0 -12.4 0zM954.21 199.97 a6.2 6.2 0 1 0 12.4 0 a6.2 6.2 0 1 0 -12.4 0zM900.51 168.97 a6.2 6.2 0 1 0 12.4 0 a6.2 6.2 0 1 0 -12.4 0zM900.51 106.97 a6.2 6.2 0 1 0 12.4 0 a6.2 6.2 0 1 0 -12.4 0zM1007.9 -17.03 a6.2 6.2 0 1 0 12.4 0 a6.2 6.2 0 1 0 -12.4 0zM1061.6 13.97 a6.2 6.2 0 1 0 12.4 0 a6.2 6.2 0 1 0 -12.4 0zM1061.6 75.97 a6.2 6.2 0 1 0 12.4 0 a6.2 6.2 0 1 0 -12.4 0zM954.21 13.97 a6.2 6.2 0 1 0 12.4 0 a6.2 6.2 0 1 0 -12.4 0zM1007.9 912.97 a6.2 6.2 0 1 0 12.4 0 a6.2 6.2 0 1 0 -12.4 0zM1061.6 943.97 a6.2 6.2 0 1 0 12.4 0 a6.2 6.2 0 1 0 -12.4 0zM1061.6 1005.97 a6.2 6.2 0 1 0 12.4 0 a6.2 6.2 0 1 0 -12.4 0zM1007.9 1036.97 a6.2 6.2 0 1 0 12.4 0 a6.2 6.2 0 1 0 -12.4 0zM954.21 1005.97 a6.2 6.2 0 1 0 12.4 0 a6.2 6.2 0 1 0 -12.4 0zM954.21 943.97 a6.2 6.2 0 1 0 12.4 0 a6.2 6.2 0 1 0 -12.4 0zM1115.29 1036.97 a6.2 6.2 0 1 0 12.4 0 a6.2 6.2 0 1 0 -12.4 0zM1115.29 1098.97 a6.2 6.2 0 1 0 12.4 0 a6.2 6.2 0 1 0 -12.4 0zM1061.6 1129.97 a6.2 6.2 0 1 0 12.4 0 a6.2 6.2 0 1 0 -12.4 0zM1007.9 1098.97 a6.2 6.2 0 1 0 12.4 0 a6.2 6.2 0 1 0 -12.4 0zM1061.6 1191.97 a6.2 6.2 0 1 0 12.4 0 a6.2 6.2 0 1 0 -12.4 0zM1007.9 1222.97 a6.2 6.2 0 1 0 12.4 0 a6.2 6.2 0 1 0 -12.4 0zM954.21 1191.97 a6.2 6.2 0 1 0 12.4 0 a6.2 6.2 0 1 0 -12.4 0zM954.21 1129.97 a6.2 6.2 0 1 0 12.4 0 a6.2 6.2 0 1 0 -12.4 0zM1115.29 354.97 a6.2 6.2 0 1 0 12.4 0 a6.2 6.2 0 1 0 -12.4 0zM1168.99 385.97 a6.2 6.2 0 1 0 12.4 0 a6.2 6.2 0 1 0 -12.4 0zM1168.99 447.97 a6.2 6.2 0 1 0 12.4 0 a6.2 6.2 0 1 0 -12.4 0zM1115.29 478.97 a6.2 6.2 0 1 0 12.4 0 a6.2 6.2 0 1 0 -12.4 0zM1061.6 447.97 a6.2 6.2 0 1 0 12.4 0 a6.2 6.2 0 1 0 -12.4 0zM1061.6 385.97 a6.2 6.2 0 1 0 12.4 0 a6.2 6.2 0 1 0 -12.4 0zM1168.99 1005.97 a6.2 6.2 0 1 0 12.4 0 a6.2 6.2 0 1 0 -12.4 0zM1222.68 1036.97 a6.2 6.2 0 1 0 12.4 0 a6.2 6.2 0 1 0 -12.4 0zM1222.68 1098.97 a6.2 6.2 0 1 0 12.4 0 a6.2 6.2 0 1 0 -12.4 0zM1168.99 1129.97 a6.2 6.2 0 1 0 12.4 0 a6.2 6.2 0 1 0 -12.4 0zM1383.77 447.97 a6.2 6.2 0 1 0 12.4 0 a6.2 6.2 0 1 0 -12.4 0zM1437.46 478.97 a6.2 6.2 0 1 0 12.4 0 a6.2 6.2 0 1 0 -12.4 0zM1437.46 540.97 a6.2 6.2 0 1 0 12.4 0 a6.2 6.2 0 1 0 -12.4 0zM1383.77 571.97 a6.2 6.2 0 1 0 12.4 0 a6.2 6.2 0 1 0 -12.4 0zM1330.07 540.97 a6.2 6.2 0 1 0 12.4 0 a6.2 6.2 0 1 0 -12.4 0zM1330.07 478.97 a6.2 6.2 0 1 0 12.4 0 a6.2 6.2 0 1 0 -12.4 0zM1491.16 261.97 a6.2 6.2 0 1 0 12.4 0 a6.2 6.2 0 1 0 -12.4 0zM1544.85 292.97 a6.2 6.2 0 1 0 12.4 0 a6.2 6.2 0 1 0 -12.4 0zM1544.85 354.97 a6.2 6.2 0 1 0 12.4 0 a6.2 6.2 0 1 0 -12.4 0zM1491.16 385.97 a6.2 6.2 0 1 0 12.4 0 a6.2 6.2 0 1 0 -12.4 0zM1437.46 354.97 a6.2 6.2 0 1 0 12.4 0 a6.2 6.2 0 1 0 -12.4 0zM1437.46 292.97 a6.2 6.2 0 1 0 12.4 0 a6.2 6.2 0 1 0 -12.4 0zM1491.16 571.97 a6.2 6.2 0 1 0 12.4 0 a6.2 6.2 0 1 0 -12.4 0zM1491.16 633.97 a6.2 6.2 0 1 0 12.4 0 a6.2 6.2 0 1 0 -12.4 0zM1437.46 664.97 a6.2 6.2 0 1 0 12.4 0 a6.2 6.2 0 1 0 -12.4 0zM1383.77 633.97 a6.2 6.2 0 1 0 12.4 0 a6.2 6.2 0 1 0 -12.4 0zM1437.46 912.97 a6.2 6.2 0 1 0 12.4 0 a6.2 6.2 0 1 0 -12.4 0zM1491.16 943.97 a6.2 6.2 0 1 0 12.4 0 a6.2 6.2 0 1 0 -12.4 0zM1491.16 1005.97 a6.2 6.2 0 1 0 12.4 0 a6.2 6.2 0 1 0 -12.4 0zM1437.46 1036.97 a6.2 6.2 0 1 0 12.4 0 a6.2 6.2 0 1 0 -12.4 0zM1383.77 1005.97 a6.2 6.2 0 1 0 12.4 0 a6.2 6.2 0 1 0 -12.4 0zM1383.77 943.97 a6.2 6.2 0 1 0 12.4 0 a6.2 6.2 0 1 0 -12.4 0zM1598.55 75.97 a6.2 6.2 0 1 0 12.4 0 a6.2 6.2 0 1 0 -12.4 0zM1652.24 106.97 a6.2 6.2 0 1 0 12.4 0 a6.2 6.2 0 1 0 -12.4 0zM1652.24 168.97 a6.2 6.2 0 1 0 12.4 0 a6.2 6.2 0 1 0 -12.4 0zM1598.55 199.97 a6.2 6.2 0 1 0 12.4 0 a6.2 6.2 0 1 0 -12.4 0zM1544.85 168.97 a6.2 6.2 0 1 0 12.4 0 a6.2 6.2 0 1 0 -12.4 0zM1544.85 106.97 a6.2 6.2 0 1 0 12.4 0 a6.2 6.2 0 1 0 -12.4 0zM1598.55 385.97 a6.2 6.2 0 1 0 12.4 0 a6.2 6.2 0 1 0 -12.4 0zM1598.55 447.97 a6.2 6.2 0 1 0 12.4 0 a6.2 6.2 0 1 0 -12.4 0zM1544.85 478.97 a6.2 6.2 0 1 0 12.4 0 a6.2 6.2 0 1 0 -12.4 0zM1491.16 447.97 a6.2 6.2 0 1 0 12.4 0 a6.2 6.2 0 1 0 -12.4 0zM1544.85 540.97 a6.2 6.2 0 1 0 12.4 0 a6.2 6.2 0 1 0 -12.4 0zM1598.55 571.97 a6.2 6.2 0 1 0 12.4 0 a6.2 6.2 0 1 0 -12.4 0zM1598.55 633.97 a6.2 6.2 0 1 0 12.4 0 a6.2 6.2 0 1 0 -12.4 0zM1544.85 664.97 a6.2 6.2 0 1 0 12.4 0 a6.2 6.2 0 1 0 -12.4 0zM1705.94 199.97 a6.2 6.2 0 1 0 12.4 0 a6.2 6.2 0 1 0 -12.4 0zM1705.94 261.97 a6.2 6.2 0 1 0 12.4 0 a6.2 6.2 0 1 0 -12.4 0zM1652.24 292.97 a6.2 6.2 0 1 0 12.4 0 a6.2 6.2 0 1 0 -12.4 0zM1598.55 261.97 a6.2 6.2 0 1 0 12.4 0 a6.2 6.2 0 1 0 -12.4 0zM1759.63 292.97 a6.2 6.2 0 1 0 12.4 0 a6.2 6.2 0 1 0 -12.4 0zM1759.63 354.97 a6.2 6.2 0 1 0 12.4 0 a6.2 6.2 0 1 0 -12.4 0zM1705.94 385.97 a6.2 6.2 0 1 0 12.4 0 a6.2 6.2 0 1 0 -12.4 0zM1652.24 354.97 a6.2 6.2 0 1 0 12.4 0 a6.2 6.2 0 1 0 -12.4 0zM1813.33 75.97 a6.2 6.2 0 1 0 12.4 0 a6.2 6.2 0 1 0 -12.4 0zM1867.02 106.97 a6.2 6.2 0 1 0 12.4 0 a6.2 6.2 0 1 0 -12.4 0zM1867.02 168.97 a6.2 6.2 0 1 0 12.4 0 a6.2 6.2 0 1 0 -12.4 0zM1813.33 199.97 a6.2 6.2 0 1 0 12.4 0 a6.2 6.2 0 1 0 -12.4 0zM1759.63 168.97 a6.2 6.2 0 1 0 12.4 0 a6.2 6.2 0 1 0 -12.4 0zM1759.63 106.97 a6.2 6.2 0 1 0 12.4 0 a6.2 6.2 0 1 0 -12.4 0zM1813.33 261.97 a6.2 6.2 0 1 0 12.4 0 a6.2 6.2 0 1 0 -12.4 0zM1813.33 819.97 a6.2 6.2 0 1 0 12.4 0 a6.2 6.2 0 1 0 -12.4 0zM1867.02 850.97 a6.2 6.2 0 1 0 12.4 0 a6.2 6.2 0 1 0 -12.4 0zM1867.02 912.97 a6.2 6.2 0 1 0 12.4 0 a6.2 6.2 0 1 0 -12.4 0zM1813.33 943.97 a6.2 6.2 0 1 0 12.4 0 a6.2 6.2 0 1 0 -12.4 0zM1759.63 912.97 a6.2 6.2 0 1 0 12.4 0 a6.2 6.2 0 1 0 -12.4 0zM1759.63 850.97 a6.2 6.2 0 1 0 12.4 0 a6.2 6.2 0 1 0 -12.4 0zM1813.33 1005.97 a6.2 6.2 0 1 0 12.4 0 a6.2 6.2 0 1 0 -12.4 0zM1867.02 1036.97 a6.2 6.2 0 1 0 12.4 0 a6.2 6.2 0 1 0 -12.4 0zM1867.02 1098.97 a6.2 6.2 0 1 0 12.4 0 a6.2 6.2 0 1 0 -12.4 0zM1813.33 1129.97 a6.2 6.2 0 1 0 12.4 0 a6.2 6.2 0 1 0 -12.4 0zM1759.63 1098.97 a6.2 6.2 0 1 0 12.4 0 a6.2 6.2 0 1 0 -12.4 0zM1759.63 1036.97 a6.2 6.2 0 1 0 12.4 0 a6.2 6.2 0 1 0 -12.4 0zM1813.33 1191.97 a6.2 6.2 0 1 0 12.4 0 a6.2 6.2 0 1 0 -12.4 0zM1759.63 1222.97 a6.2 6.2 0 1 0 12.4 0 a6.2 6.2 0 1 0 -12.4 0zM1705.94 1191.97 a6.2 6.2 0 1 0 12.4 0 a6.2 6.2 0 1 0 -12.4 0zM1705.94 1129.97 a6.2 6.2 0 1 0 12.4 0 a6.2 6.2 0 1 0 -12.4 0zM1867.02 -17.03 a6.2 6.2 0 1 0 12.4 0 a6.2 6.2 0 1 0 -12.4 0zM1920.72 13.97 a6.2 6.2 0 1 0 12.4 0 a6.2 6.2 0 1 0 -12.4 0zM1920.72 75.97 a6.2 6.2 0 1 0 12.4 0 a6.2 6.2 0 1 0 -12.4 0zM1813.33 13.97 a6.2 6.2 0 1 0 12.4 0 a6.2 6.2 0 1 0 -12.4 0zM1920.72 633.97 a6.2 6.2 0 1 0 12.4 0 a6.2 6.2 0 1 0 -12.4 0zM1974.41 664.97 a6.2 6.2 0 1 0 12.4 0 a6.2 6.2 0 1 0 -12.4 0zM1974.41 726.97 a6.2 6.2 0 1 0 12.4 0 a6.2 6.2 0 1 0 -12.4 0zM1920.72 757.97 a6.2 6.2 0 1 0 12.4 0 a6.2 6.2 0 1 0 -12.4 0zM1867.02 726.97 a6.2 6.2 0 1 0 12.4 0 a6.2 6.2 0 1 0 -12.4 0zM1867.02 664.97 a6.2 6.2 0 1 0 12.4 0 a6.2 6.2 0 1 0 -12.4 0zM1920.72 1005.97 a6.2 6.2 0 1 0 12.4 0 a6.2 6.2 0 1 0 -12.4 0zM1974.41 1036.97 a6.2 6.2 0 1 0 12.4 0 a6.2 6.2 0 1 0 -12.4 0zM1974.41 1098.97 a6.2 6.2 0 1 0 12.4 0 a6.2 6.2 0 1 0 -12.4 0zM1920.72 1129.97 a6.2 6.2 0 1 0 12.4 0 a6.2 6.2 0 1 0 -12.4 0z" fill="rgba(57, 121, 107, 1)"></path><path d="M47.72 -17.07L91.02 7.93L91.02 57.93L47.72 82.93L4.42 57.93L4.42 7.93zM91.02 57.93L134.32 82.93L134.32 132.93L91.02 157.93L47.72 132.93L47.72 82.93zM91.02 207.93L134.32 232.93L134.32 282.93L91.02 307.93L47.72 282.93L47.72 232.93zM47.72 882.93L91.02 907.93L91.02 957.93L47.72 982.93L4.42 957.93L4.42 907.93zM47.72 1032.93L91.02 1057.93L91.02 1107.93L47.72 1132.93L4.42 1107.93L4.42 1057.93zM177.63 57.93L220.93 82.93L220.93 132.93L177.63 157.93L134.32 132.93L134.32 82.93zM177.63 357.93L220.93 382.93L220.93 432.93L177.63 457.93L134.32 432.93L134.32 382.93zM177.63 657.93L220.93 682.93L220.93 732.93L177.63 757.93L134.32 732.93L134.32 682.93zM134.32 1032.93L177.63 1057.93L177.63 1107.93L134.32 1132.93L91.02 1107.93L91.02 1057.93zM264.23 357.93L307.53 382.93L307.53 432.93L264.23 457.93L220.93 432.93L220.93 382.93zM307.53 -17.07L350.84 7.93L350.84 57.93L307.53 82.93L264.23 57.93L264.23 7.93zM307.53 432.93L350.84 457.93L350.84 507.93L307.53 532.93L264.23 507.93L264.23 457.93zM394.14 432.93L437.44 457.93L437.44 507.93L394.14 532.93L350.84 507.93L350.84 457.93zM437.44 657.93L480.75 682.93L480.75 732.93L437.44 757.93L394.14 732.93L394.14 682.93zM394.14 732.93L437.44 757.93L437.44 807.93L394.14 832.93L350.84 807.93L350.84 757.93zM437.44 957.93L480.75 982.93L480.75 1032.93L437.44 1057.93L394.14 1032.93L394.14 982.93zM394.14 1032.93L437.44 1057.93L437.44 1107.93L394.14 1132.93L350.84 1107.93L350.84 1057.93zM480.75 -17.07L524.05 7.93L524.05 57.93L480.75 82.93L437.44 57.93L437.44 7.93zM524.05 57.93L567.35 82.93L567.35 132.93L524.05 157.93L480.75 132.93L480.75 82.93zM524.05 507.93L567.35 532.93L567.35 582.93L524.05 607.93L480.75 582.93L480.75 532.93zM524.05 957.93L567.35 982.93L567.35 1032.93L524.05 1057.93L480.75 1032.93L480.75 982.93zM480.75 1032.93L524.05 1057.93L524.05 1107.93L480.75 1132.93L437.44 1107.93L437.44 1057.93zM610.65 57.93L653.96 82.93L653.96 132.93L610.65 157.93L567.35 132.93L567.35 82.93zM610.65 357.93L653.96 382.93L653.96 432.93L610.65 457.93L567.35 432.93L567.35 382.93zM567.35 582.93L610.65 607.93L610.65 657.93L567.35 682.93L524.05 657.93L524.05 607.93zM610.65 657.93L653.96 682.93L653.96 732.93L610.65 757.93L567.35 732.93L567.35 682.93zM610.65 807.93L653.96 832.93L653.96 882.93L610.65 907.93L567.35 882.93L567.35 832.93zM697.26 57.93L740.56 82.93L740.56 132.93L697.26 157.93L653.96 132.93L653.96 82.93zM697.26 207.93L740.56 232.93L740.56 282.93L697.26 307.93L653.96 282.93L653.96 232.93zM653.96 432.93L697.26 457.93L697.26 507.93L653.96 532.93L610.65 507.93L610.65 457.93zM697.26 507.93L740.56 532.93L740.56 582.93L697.26 607.93L653.96 582.93L653.96 532.93zM697.26 657.93L740.56 682.93L740.56 732.93L697.26 757.93L653.96 732.93L653.96 682.93zM697.26 807.93L740.56 832.93L740.56 882.93L697.26 907.93L653.96 882.93L653.96 832.93zM697.26 957.93L740.56 982.93L740.56 1032.93L697.26 1057.93L653.96 1032.93L653.96 982.93zM653.96 1032.93L697.26 1057.93L697.26 1107.93L653.96 1132.93L610.65 1107.93L610.65 1057.93zM740.56 -17.07L783.86 7.93L783.86 57.93L740.56 82.93L697.26 57.93L697.26 7.93zM740.56 432.93L783.86 457.93L783.86 507.93L740.56 532.93L697.26 507.93L697.26 457.93zM740.56 882.93L783.86 907.93L783.86 957.93L740.56 982.93L697.26 957.93L697.26 907.93zM783.86 957.93L827.17 982.93L827.17 1032.93L783.86 1057.93L740.56 1032.93L740.56 982.93zM827.17 282.93L870.47 307.93L870.47 357.93L827.17 382.93L783.86 357.93L783.86 307.93zM870.47 357.93L913.77 382.93L913.77 432.93L870.47 457.93L827.17 432.93L827.17 382.93zM827.17 732.93L870.47 757.93L870.47 807.93L827.17 832.93L783.86 807.93L783.86 757.93zM827.17 882.93L870.47 907.93L870.47 957.93L827.17 982.93L783.86 957.93L783.86 907.93zM957.07 207.93L1000.38 232.93L1000.38 282.93L957.07 307.93L913.77 282.93L913.77 232.93zM957.07 507.93L1000.38 532.93L1000.38 582.93L957.07 607.93L913.77 582.93L913.77 532.93zM1043.68 57.93L1086.98 82.93L1086.98 132.93L1043.68 157.93L1000.38 132.93L1000.38 82.93zM1043.68 807.93L1086.98 832.93L1086.98 882.93L1043.68 907.93L1000.38 882.93L1000.38 832.93zM1000.38 882.93L1043.68 907.93L1043.68 957.93L1000.38 982.93L957.07 957.93L957.07 907.93zM1130.28 57.93L1173.59 82.93L1173.59 132.93L1130.28 157.93L1086.98 132.93L1086.98 82.93zM1130.28 207.93L1173.59 232.93L1173.59 282.93L1130.28 307.93L1086.98 282.93L1086.98 232.93zM1086.98 282.93L1130.28 307.93L1130.28 357.93L1086.98 382.93L1043.68 357.93L1043.68 307.93zM1130.28 357.93L1173.59 382.93L1173.59 432.93L1130.28 457.93L1086.98 432.93L1086.98 382.93zM1130.28 657.93L1173.59 682.93L1173.59 732.93L1130.28 757.93L1086.98 732.93L1086.98 682.93zM1130.28 957.93L1173.59 982.93L1173.59 1032.93L1130.28 1057.93L1086.98 1032.93L1086.98 982.93zM1216.89 207.93L1260.19 232.93L1260.19 282.93L1216.89 307.93L1173.59 282.93L1173.59 232.93zM1173.59 582.93L1216.89 607.93L1216.89 657.93L1173.59 682.93L1130.28 657.93L1130.28 607.93zM1216.89 657.93L1260.19 682.93L1260.19 732.93L1216.89 757.93L1173.59 732.93L1173.59 682.93zM1173.59 1032.93L1216.89 1057.93L1216.89 1107.93L1173.59 1132.93L1130.28 1107.93L1130.28 1057.93zM1260.19 282.93L1303.49 307.93L1303.49 357.93L1260.19 382.93L1216.89 357.93L1216.89 307.93zM1390.1 207.93L1433.4 232.93L1433.4 282.93L1390.1 307.93L1346.8 282.93L1346.8 232.93zM1346.8 732.93L1390.1 757.93L1390.1 807.93L1346.8 832.93L1303.49 807.93L1303.49 757.93zM1563.31 207.93L1606.61 232.93L1606.61 282.93L1563.31 307.93L1520.01 282.93L1520.01 232.93zM1520.01 282.93L1563.31 307.93L1563.31 357.93L1520.01 382.93L1476.7 357.93L1476.7 307.93zM1563.31 507.93L1606.61 532.93L1606.61 582.93L1563.31 607.93L1520.01 582.93L1520.01 532.93zM1563.31 957.93L1606.61 982.93L1606.61 1032.93L1563.31 1057.93L1520.01 1032.93L1520.01 982.93zM1520.01 1032.93L1563.31 1057.93L1563.31 1107.93L1520.01 1132.93L1476.7 1107.93L1476.7 1057.93zM1606.61 132.93L1649.91 157.93L1649.91 207.93L1606.61 232.93L1563.31 207.93L1563.31 157.93zM1606.61 282.93L1649.91 307.93L1649.91 357.93L1606.61 382.93L1563.31 357.93L1563.31 307.93zM1649.91 957.93L1693.22 982.93L1693.22 1032.93L1649.91 1057.93L1606.61 1032.93L1606.61 982.93zM1693.22 -17.07L1736.52 7.93L1736.52 57.93L1693.22 82.93L1649.91 57.93L1649.91 7.93zM1736.52 57.93L1779.82 82.93L1779.82 132.93L1736.52 157.93L1693.22 132.93L1693.22 82.93zM1693.22 132.93L1736.52 157.93L1736.52 207.93L1693.22 232.93L1649.91 207.93L1649.91 157.93zM1736.52 207.93L1779.82 232.93L1779.82 282.93L1736.52 307.93L1693.22 282.93L1693.22 232.93zM1779.82 432.93L1823.12 457.93L1823.12 507.93L1779.82 532.93L1736.52 507.93L1736.52 457.93zM1779.82 1032.93L1823.12 1057.93L1823.12 1107.93L1779.82 1132.93L1736.52 1107.93L1736.52 1057.93zM1909.73 57.93L1953.03 82.93L1953.03 132.93L1909.73 157.93L1866.43 132.93L1866.43 82.93zM1866.43 282.93L1909.73 307.93L1909.73 357.93L1866.43 382.93L1823.12 357.93L1823.12 307.93zM1909.73 357.93L1953.03 382.93L1953.03 432.93L1909.73 457.93L1866.43 432.93L1866.43 382.93zM1866.43 732.93L1909.73 757.93L1909.73 807.93L1866.43 832.93L1823.12 807.93L1823.12 757.93zM1909.73 807.93L1953.03 832.93L1953.03 882.93L1909.73 907.93L1866.43 882.93L1866.43 832.93zM1953.03 882.93L1996.33 907.93L1996.33 957.93L1953.03 982.93L1909.73 957.93L1909.73 907.93zM1996.33 957.93L2039.64 982.93L2039.64 1032.93L1996.33 1057.93L1953.03 1032.93L1953.03 982.93z" stroke="rgba(0, 77, 64, 1)" stroke-width="2"></path></g><defs><mask id="SvgjsMask1046"><rect width="1920" height="1080" fill="#ffffff"></rect></mask></defs></svg>