<?xml version="1.0" encoding="UTF-8" standalone="no"?>
<!DOCTYPE svg PUBLIC "-//W3C//DTD SVG 1.1//EN" "http://www.w3.org/Graphics/SVG/1.1/DTD/svg11.dtd">
<svg width="100%" height="100%" viewBox="0 0 1361 257" version="1.1" xmlns="http://www.w3.org/2000/svg" xmlns:xlink="http://www.w3.org/1999/xlink" xml:space="preserve" xmlns:serif="http://www.serif.com/" style="fill-rule:evenodd;clip-rule:evenodd;stroke-linejoin:round;stroke-miterlimit:2;">
    <g id="drone.svg" transform="matrix(0.32125,0,0,0.32125,128.5,128.5)">
        <g transform="matrix(1,0,0,1,-400,-400)">
            <g id="SVGRepo_iconCarrier">
                <g>
                    <path d="M184.844,313.594C194.531,313.594 204.063,312.5 213.125,310.469C207.813,302.656 201.719,295.156 195,288.438L190.313,283.75C186.406,279.844 181.563,277.344 176.719,276.719C158.125,274.063 141.406,265.781 128.125,252.5C112.031,236.406 103.125,214.844 103.281,192.031C103.281,169.219 112.344,147.813 128.437,131.719C144.375,115.781 165.781,107.187 188.438,107.187C210.156,107.187 230.937,115.312 246.719,130.156C260.781,143.281 269.687,160.312 272.656,179.375C273.594,185.156 275.937,190.312 279.687,194.062L280.781,195.156C288.906,203.281 297.812,210.313 307.344,216.25C309.375,207.187 310.469,197.812 310.469,188.125C310.469,118.75 254.219,62.656 185,62.656C115.469,62.5 59.375,118.75 59.375,187.969C59.375,257.344 115.469,313.594 184.844,313.594Z" style="fill:rgb(224,252,255);fill-rule:nonzero;"/>
                    <path d="M534.844,589.531L535.938,590.625C543.125,597.813 547.656,607.344 549.219,617.5C551.25,630.938 557.656,643.906 568.438,654.063C593.125,677.188 632.344,676.719 656.25,652.812C681.094,628.125 681.25,587.969 656.406,563.125C646.25,552.969 633.594,547.031 620.313,545.156C610.469,543.75 601.25,539.063 594.219,531.875L589.375,527.188C580.156,517.969 572.031,507.656 565.156,496.719C548.281,469.687 539.063,438.281 539.063,405.937L539.063,394.219C539.063,361.875 548.281,330.469 565.156,303.281C572.031,292.344 580,282.187 589.375,272.969L592.969,269.375C600.625,261.719 610.313,256.406 621.094,254.844C634.531,252.812 647.5,246.406 657.656,235.625C680.781,210.937 680.313,171.719 656.406,147.656C631.719,122.812 591.406,122.656 566.719,147.5C556.875,157.344 550.938,169.531 548.906,182.344C547.188,192.969 542.188,202.969 534.531,210.625C523.906,221.25 512.188,230.312 499.375,237.656C492.813,241.562 485.938,245 478.75,247.812C458.125,256.406 435.938,260.937 413.125,260.937L385.938,260.937C355.469,260.937 325.781,252.812 299.844,237.656C287.188,230.312 275.313,221.25 264.688,210.625L264.063,209.375C256.875,202.188 252.344,192.656 250.781,182.656C248.75,169.219 242.344,156.25 231.562,146.094C206.875,122.812 167.813,123.438 143.75,147.188C118.906,171.875 118.75,212.031 143.594,236.875C153.75,247.031 166.406,252.969 179.688,254.844C189.531,256.25 198.75,260.938 205.781,268.125L210.625,272.969C219.844,282.188 227.969,292.5 234.844,303.281C251.719,330.313 260.937,361.719 260.937,394.219C260.937,420.781 255.625,446.719 245.781,470.625C242.187,479.375 237.969,487.813 233.125,495.937C224.687,510.156 214.375,523.438 202.5,535.469L201.563,535.938C196.563,540.938 190,544.063 182.969,544.688C167.969,545.938 153.281,552.5 142.188,564.375C119.063,589.063 119.531,628.281 143.438,652.344C168.125,677.188 208.438,677.344 233.125,652.5C244.062,641.563 250.156,627.656 251.406,613.438C252.031,606.25 255.156,599.688 260.156,594.531L265.156,589.531C275.781,578.906 287.5,569.844 300.312,562.5C326.25,547.344 355.937,539.219 386.406,539.219L413.594,539.219C444.062,539.219 473.75,547.344 499.687,562.5C512.5,569.844 524.219,578.906 534.844,589.531ZM400,454.688C369.844,454.688 345.313,430.156 345.313,400C345.313,369.844 369.844,345.313 400,345.313C430.156,345.313 454.688,369.844 454.688,400C454.688,430.156 430.156,454.688 400,454.688Z" style="fill:rgb(135,234,242);fill-rule:nonzero;"/>
                    <path d="M519.375,195C523.75,190.625 526.563,185 527.5,178.75C530.313,160.781 538.594,144.688 551.406,131.875C567.5,115.781 588.906,106.875 611.563,106.875C634.375,106.875 655.937,115.781 672.031,132.031C687.5,147.656 696.25,168.594 696.562,190.781C696.875,213.125 688.75,234.219 673.594,250.312C660.313,264.375 643.281,273.281 624.219,276.25C618.594,277.187 612.812,280.156 608.281,284.688L604.687,288.281C597.969,295 591.875,302.344 586.562,310.313C595.625,312.344 605.156,313.438 614.844,313.438C684.219,313.438 740.312,257.188 740.312,187.969C740.312,118.594 684.062,62.5 614.844,62.5C545.469,62.5 489.375,118.75 489.375,187.969C489.375,197.656 490.469,207.031 492.5,216.094C502.344,210.156 511.406,203.125 519.375,195Z" style="fill:rgb(224,252,255);fill-rule:nonzero;"/>
                    <path d="M280.625,605L275.625,610C274.219,611.406 273.438,613.281 273.125,615.469C271.406,635.313 262.656,654.063 248.438,668.125C232.344,684.219 210.938,693.125 188.281,693.125C165.313,693.125 143.906,684.219 127.813,667.969C112.344,652.187 103.594,631.406 103.281,609.219C102.969,586.875 111.094,565.781 126.25,549.687C140.781,534.375 160.313,524.844 181.25,523.125C182.969,522.969 184.844,522.187 186.094,520.781L186.719,520.156C195.938,510.937 204.219,500.625 211.25,489.531C202.812,487.656 193.906,486.719 184.844,486.719C115.469,486.719 59.375,542.969 59.375,612.187C59.375,681.406 115.625,737.656 184.844,737.656C254.219,737.656 310.312,681.406 310.312,612.187C310.312,602.5 309.219,593.125 307.187,584.062C297.656,589.844 288.75,596.875 280.625,605Z" style="fill:rgb(224,252,255);fill-rule:nonzero;"/>
                    <path d="M615.156,486.406C605.469,486.406 595.938,487.5 586.875,489.688C592.187,497.5 598.281,505 605,511.719L609.688,516.406C613.594,520.313 618.438,522.813 623.281,523.438C641.875,525.938 658.594,534.375 671.875,547.656C687.969,563.75 696.875,585.313 696.719,608.125C696.719,630.938 687.656,652.344 671.562,668.438C655.625,684.219 634.219,692.969 611.563,692.969C600.625,692.969 590,690.938 580.156,687.031C570.312,683.125 561.25,677.344 553.281,670C539.219,656.719 530.313,639.844 527.344,620.781C526.406,615 524.062,610 520.312,606.094L519.219,605C511.094,596.875 502.187,589.844 492.656,583.906C490.625,592.969 489.531,602.344 489.531,612.031C489.531,681.406 545.781,737.5 615,737.5C684.375,737.5 740.469,681.25 740.469,612.031C740.469,542.813 684.531,486.406 615.156,486.406Z" style="fill:rgb(224,252,255);fill-rule:nonzero;"/>
                </g>
            </g>
        </g>
    </g>
    <g transform="matrix(1,0,0,1,-1009.85,-425.017)">
        <text x="1279.05px" y="605.217px" style="font-family:'SourceSans3-Bold', 'Source Sans 3', sans-serif;font-weight:700;font-size:200px;fill:rgb(135,234,242);">dr<tspan x="1471.25px " y="605.217px ">o</tspan>n</text>
        <text x="1696.65px" y="605.217px" style="font-family:'SourceSans3-Bold', 'Source Sans 3', sans-serif;font-weight:700;font-size:200px;fill:rgb(240,244,248);">ruda</text>
        <text x="2109.85px" y="605.217px" style="font-family:'SourceSans3-Bold', 'Source Sans 3', sans-serif;font-weight:700;font-size:200px;fill:rgb(135,234,242);">.pl</text>
    </g>
</svg>
